<?xml version="1.0" encoding="UTF-8" standalone="no"?>
<svg
   style="height: 512px; width: 512px;"
   viewBox="0 0 512 512"
   version="1.1"
   id="svg1"
   xmlns="http://www.w3.org/2000/svg"
   xmlns:svg="http://www.w3.org/2000/svg">
  <defs
     id="defs1" />
  <path
     d="m 265.29883,159.69141 v 0.002 c -6.445,0.017 -13.47738,0.66141 -20.98438,1.81641 11.14099,25.94897 27.23026,46.0228 63.07422,42.63281 2.784,-32.83297 -14.16287,-44.52417 -42.08984,-44.45117 z"
     style=""
     id="path4" />
  <path
     d="m 313.70703,226.05273 c -8.32399,-0.157 -18.02615,3.96579 -25.86914,11.80079 -12.54899,12.53598 -15.58338,29.827 -6.77539,38.625 2.562,2.55899 5.84939,4.10961 9.52539,4.7246 -6.44099,14.32399 -5.78124,29.08619 3.09375,37.95118 7.05699,7.05199 17.84956,8.90085 29.18555,6.13086 -6.206,21.29397 -1.48049,41.87008 13.1875,50.33007 9.90999,5.716 22.3541,4.73755 34.12109,-1.43945 -0.3,12.36999 2.89516,23.51809 9.41016,31.45508 6.20399,-0.734 12.27219,-2.99902 18.61718,-7.79102 -3.60799,-2.10099 -7.38883,-4.62219 -10.79882,-7.99218 -3.865,-3.82 -7.32891,-9.03648 -8.37891,-15.48047 -0.337,-2.074 -0.31581,-4.22625 -0.13281,-6.40625 -11.16399,-1.974 -21.23535,-9.10017 -28.02735,-17.91016 -4.89299,-6.34799 -8.33348,-13.98363 -8.27148,-22.39062 0.025,-3.468 0.95344,-6.96409 2.39844,-10.33008 -8.76199,-4.125 -15.48779,-10.73045 -19.30078,-18.39844 -3.859,-7.76499 -4.5482,-17.11576 -1.40821,-25.21875 -7.40999,-5.37599 -12.49668,-13.23856 -12.67968,-22.56055 -0.131,-6.61999 2.71103,-13.50219 7.95703,-18.74218 1.262,-1.263 2.65015,-2.44097 4.16015,-3.54297 -2.87399,-1.818 -6.30763,-2.7425 -10.01562,-2.8125 z"
     style=""
     id="path3" />
  <path
     d="M 32,0 C 14.272018,0 0,14.272018 0,32 v 448 c 0,17.72798 14.272018,32 32,32 h 448 c 17.72798,0 32,-14.27202 32,-32 V 32 C 512,14.272018 497.72798,0 480,0 Z m 168.94727,18.685547 c 0.99799,-0.013 1.98222,-0.013 2.94921,0 22.45698,0.286 38.70255,6.177088 52.51954,16.455078 17.51498,13.029987 31.75423,34.761778 47.44921,63.21875 -17.72998,-4.293996 -35.15081,-6.809219 -53.21679,-7.199219 -1.646,-0.035 -3.29704,-0.04687 -4.95703,-0.04687 -16.49599,-25.276974 -40.02378,-50.059364 -67.59375,-70.527344 8.20999,-1.125998 15.86961,-1.81339 22.84961,-1.90039 z m -91.66016,22.958984 c 10.92999,0.009 21.19529,1.89841 31.36328,5.316406 27.46797,9.229991 55.19039,31.219499 89.94336,60.605473 -7.01399,14.09698 -18.0781,23.68641 -36.45508,28.8164 C 167.2167,103.26585 116.41237,71.605809 60.232422,52.798828 77.732404,45.588835 93.046811,41.977968 107.0918,41.667969 c 0.735,-0.016 1.46531,-0.02349 2.19531,-0.02148 z m -0.20508,52.785156 c 32.7709,17.621723 59.78631,38.744703 74.00195,58.074223 l 3.57618,4.86328 5.90625,-1.26172 c 28.77397,-6.154 47.89855,-23.17876 57.43554,-46.05274 2.202,0.012 4.46772,0.0789 6.76172,0.17188 l -0.0801,-0.15625 c 27.02898,1.383 52.86355,7.91139 82.60352,18.73437 l 0.0801,-0.21679 c 20.71598,9.23399 36.974,21.88636 42,37.90234 11.59999,36.96396 46.56701,63.19863 93.29297,67.64063 28.97097,44.71295 18.37674,87.07472 -5.61524,120.42968 4.555,-22.23697 -1.33965,-42.83001 -16.80664,-51.75 -13.10999,-7.56099 -30.04973,-4.96792 -45.26172,5.16407 -1.023,-12.27299 -6.32993,-22.57785 -15.66992,-27.96485 -7.12699,-4.10999 -15.56134,-4.74814 -24.11133,-2.49414 1.373,-9.70399 -0.82257,-18.68604 -6.97656,-24.83203 -6.82999,-6.82399 -17.1579,-8.76304 -28.08789,-6.37305 -1.605,1.81 -1.87175,3.10161 -1.84375,4.47461 0.061,3.078 3.64043,8.35877 10.35742,10.63477 l 15.35742,5.20312 -12.20312,10.67774 c -3.687,3.22599 -4.177,7.67655 -1.375,13.31054 2.8,5.636 9.19593,11.15597 19.16992,12.29297 l 23.88281,2.72071 -19.45312,14.125 c -4.027,2.92499 -4.7261,5.11278 -4.7461,8.05078 -0.021,2.936 1.42673,7.0018 4.38672,10.84179 5.919,7.678 16.92062,12.53594 23.22461,10.71094 l 21.48242,-6.22265 -10.67187,19.65625 c -2.36,4.35099 -2.51247,6.85312 -2.23047,8.57812 0.281,1.724 1.13622,3.27736 3.07422,5.19336 3.87699,3.831 11.66097,7.41079 18.16797,10.92578 l 10.47265,5.6582 -7.98437,8.83008 c -16.34998,18.08199 -35.19496,23.33774 -52.21094,22.30274 -1.048,0.088 -2.03812,0.12284 -2.95312,0.0898 -55.72495,-7.50699 -136.65218,-82.9554 -169.49414,-168.19531 0.71399,-1.943 1.45354,-4.02946 2.18554,-6.06445 9.20499,-19.45298 16.34921,-39.35138 18.03321,-59.94336 l -18.62696,-1.52149 c -1.098,13.43799 -5.17958,27.30086 -11.01758,41.46485 C 61.19036,206.48954 100.35232,442.57985 233.99219,490.9668 H 21.261719 V 168.62109 C 34.353706,126.28514 69.664024,101.18963 109.08398,94.431641 Z"
     style=""
     id="path2" />
</svg>
