<?xml version="1.0" encoding="UTF-8" standalone="no"?>
<svg
   style="height: 512px; width: 512px;"
   viewBox="0 0 512 512"
   version="1.1"
   id="svg1"
   sodipodi:docname="other-names.svg"
   xml:space="preserve"
   inkscape:version="1.3.2 (091e20ef0f, 2023-11-25, custom)"
   xmlns:inkscape="http://www.inkscape.org/namespaces/inkscape"
   xmlns:sodipodi="http://sodipodi.sourceforge.net/DTD/sodipodi-0.dtd"
   xmlns="http://www.w3.org/2000/svg"
   xmlns:svg="http://www.w3.org/2000/svg"><defs
     id="defs1" /><sodipodi:namedview
     id="namedview1"
     pagecolor="#ffffff"
     bordercolor="#999999"
     borderopacity="1"
     inkscape:showpageshadow="0"
     inkscape:pageopacity="0"
     inkscape:pagecheckerboard="0"
     inkscape:deskcolor="#d1d1d1"
     inkscape:zoom="0.78613281"
     inkscape:cx="178.72298"
     inkscape:cy="255.68199"
     inkscape:window-width="1920"
     inkscape:window-height="1050"
     inkscape:window-x="0"
     inkscape:window-y="0"
     inkscape:window-maximized="1"
     inkscape:current-layer="svg1" /><path
     style="fill:#000000"
     d="M 23.814596,511.20975 C 13.075756,508.60983 3.3138157,498.76086 0.76700725,487.9567 -0.41181342,482.95586 -0.38662695,28.668696 0.79272422,24.100774 3.6308601,13.107965 13.212716,3.6122395 24.043292,1.0592047 c 4.849889,-1.14323902 458.771318,-1.14323902 463.621208,0 10.92598,2.575523 20.70076,12.3503083 23.27629,23.2762843 1.14324,4.84989 1.14324,458.771321 0,463.621211 -2.57553,10.92598 -12.35031,20.70076 -23.27629,23.27628 -4.67948,1.10307 -459.291824,1.0803 -463.849904,-0.0232 z M 241.37718,459.40503 c 5.83991,-2.95023 5.48318,2.91396 5.47318,-89.97324 -0.0121,-112.29609 12.97662,-90.69991 -90.43968,-150.37295 -86.366355,-49.83493 -81.477353,-47.45839 -86.767888,-42.17775 -3.359342,3.35305 -3.174906,-1.78487 -3.177958,88.52966 -0.0031,92.22187 -0.301289,84.76634 3.716484,92.92699 5.433542,11.03627 0.09936,7.49851 86.729082,57.52081 85.50354,49.37201 79.2832,46.16514 84.46678,43.54648 z m -95.57574,-79.25124 -14.3571,-8.32376 -0.01,-15.66954 c -0.008,-12.34276 0.12293,-15.6149 0.61495,-15.41216 0.34356,0.14156 7.03349,3.9643 14.86651,8.49499 l 14.24187,8.2376 0.13205,15.54478 c 0.10436,12.28496 -4.4e-4,15.53503 -0.49971,15.49831 -0.34747,-0.0256 -7.09246,-3.79216 -14.98887,-8.37022 z m 0.002,-43.47618 -14.3549,-8.32275 -0.0119,-4.01766 c -0.0321,-10.85888 3.19897,-14.89719 15.95228,-19.93758 25.84844,-10.21588 6.21443,-39.38118 -26.58311,-39.48781 l -6.37136,-0.0207 v -13.61722 c 0,-12.63625 0.063,-13.61711 0.8745,-13.61564 1.64542,0.003 14.24558,3.53155 18.55633,5.19653 51.14136,19.7529 74.85336,73.11449 38.66702,87.01641 -9.05853,3.48007 -11.12467,5.62523 -11.12467,11.55016 0,4.6724 1.33826,5.07924 -15.6042,-4.74373 z M 278.3098,459.5878 c 5.53014,-2.10129 151.87787,-87.11232 155.24023,-90.17655 5.9036,-5.38013 10.45181,-13.88039 11.67375,-21.81738 0.42323,-2.74899 0.53634,-25.25669 0.42442,-84.45177 l -0.1526,-80.70392 -1.30963,-2.79269 c -2.22375,-4.74194 -6.28998,-6.37781 -11.43309,-4.59958 -2.37716,0.8219 -143.51824,81.90572 -151.66339,87.12875 -6.81326,4.36897 -12.87972,13.06356 -15.0653,21.59192 -0.88262,3.44408 -0.92557,7.43795 -0.92557,86.0646 v 82.45291 l 1.49914,2.99829 c 2.41427,4.82853 6.4403,6.30853 11.71204,4.30542 z m 63.11311,-78.61588 0.13205,-15.59399 11.74329,-6.78817 c 6.45881,-3.73349 13.03631,-7.52653 14.61666,-8.42898 l 2.87335,-1.64083 v 15.7152 15.7152 l -14.41302,8.30778 c -7.92717,4.56928 -14.56408,8.30778 -14.7487,8.30778 -0.18462,0 -0.27626,-7.0173 -0.20363,-15.59399 z m -0.10913,-32.25369 c 0.0212,-10.67629 3.0897,-17.89708 16.40455,-38.60295 25.79754,-40.11766 3.77591,-44.5739 -28.59929,-5.78728 l -4.55438,5.4563 -0.13297,-13.90541 -0.13297,-13.90542 3.63097,-3.34554 c 35.06485,-32.30842 63.80008,-41.61835 69.87353,-22.63835 4.36225,13.63235 -0.2566,28.42714 -16.89771,54.1257 -7.71417,11.91284 -10.09913,17.69925 -10.11347,24.53736 l -0.004,1.80035 -14.40879,8.31887 c -7.92484,4.57538 -14.55856,8.31888 -14.74159,8.31888 -0.18303,0 -0.32887,-1.96763 -0.3241,-4.37251 z m -77.35667,-100.1221 c 1.45236,-0.30292 4.43962,-1.40273 6.63837,-2.44402 5.76181,-2.72871 155.46497,-89.48271 157.81188,-91.45306 4.87805,-4.09537 4.98469,-9.82597 0.26666,-14.32994 -1.92896,-1.84145 -155.12945,-90.668185 -159.47258,-92.463344 -7.96272,-3.291253 -18.45454,-3.399259 -26.58998,-0.273725 -4.12591,1.58512 -158.209124,90.951229 -160.279328,92.959769 -4.663964,4.52503 -4.149253,10.72735 1.225476,14.7671 0.904056,0.67951 12.325139,7.41004 25.380182,14.95673 13.05505,7.54669 47.57284,27.5102 76.7062,44.36334 60.90048,35.22986 56.63316,32.99482 66.21219,34.67913 1.84762,0.32487 9.07068,-0.12995 12.10093,-0.76198 z m 21.87967,-67.22608 c -7.0085,-3.9709 -13.04689,-7.40073 -13.41865,-7.62184 -0.59668,-0.35488 30.66255,-18.44018 32.76891,-18.95874 0.86704,-0.21346 27.18458,14.47198 26.98861,15.05989 -0.16453,0.4936 -32.66288,18.86374 -33.23736,18.78788 -0.19734,-0.026 -6.09302,-3.29629 -13.10151,-7.26719 z m -27.98402,-15.75316 c -9.69869,-5.54243 -11.01478,-10.03873 -7.28976,-24.90488 2.73226,-10.90413 1.86966,-14.08566 -4.65754,-17.17848 -12.84008,-6.08409 -34.66922,4.7672 -47.12306,23.42492 -1.65109,2.47358 -3.1884,4.56764 -3.41624,4.65347 -0.22784,0.0858 -5.74734,-2.83029 -12.26557,-6.48025 l -11.85131,-6.63628 4.8821,-4.64994 c 48.81174,-46.490614 124.28517,-48.472994 112.26891,-2.94885 -2.6772,10.14267 -1.99986,12.88113 3.99277,16.14273 1.35584,0.73794 2.29053,1.50332 2.07708,1.70084 -0.82345,0.76206 -32.7507,18.45646 -33.29427,18.45203 -0.31607,-0.003 -1.81148,-0.71147 -3.32311,-1.57531 z"
     id="path1" /></svg>
