<?xml version="1.0" encoding="UTF-8" standalone="no"?>
<svg
   style="height: 512px; width: 512px;"
   viewBox="0 0 512 512"
   version="1.1"
   id="svg1"
   xmlns="http://www.w3.org/2000/svg"
   xmlns:svg="http://www.w3.org/2000/svg">
  <defs
     id="defs1" />
  <path
     d="m 399.99805,399.24414 v 18 h 48 v -18 z"
     style="fill:#ffffff"
     id="path7" />
  <path
     d="m 399.99805,367.24414 v 18 h 48 v -18 z"
     style="fill:#ffffff"
     id="path6" />
  <path
     d="m 399.99805,335.24414 v 18 h 48 v -18 z"
     style="fill:#ffffff"
     id="path5" />
  <path
     d="m 423.02148,191.24414 c -13.69998,0 -25,11.30001 -25,25 0,13.69999 11.30002,25 25,25 13.69999,0 25,-11.30001 25,-25 0,-13.69999 -11.30001,-25 -25,-25 z"
     style="fill:#ffffff"
     id="path4" />
  <path
     d="M 94.359375,184.24219 C 79.999389,184.24219 64,200.2422 64,216.24219 v 192 c 0,15.99998 15.999625,32 31.349609,32 H 350.11914 c 17.87998,0 33.88086,-16.00002 33.88086,-32 v -192 c 0,-5.479 -1.87838,-10.95698 -4.98438,-15.79297 C 225.87678,206.54721 105.92397,229.7043 80,392.24414 v -160 c 0,-15.99998 16.000016,-32 32,-32 h 266.88086 c -5.98599,-9.18199 -16.40335,-16 -26.77734,-16 H 94.359375 Z"
     style="fill:#ffffff"
     id="path3" />
  <path
     d="M 32,0 C 14.272018,0 0,14.272018 0,32 v 448 c 0,17.72798 14.272018,32 32,32 h 448 c 17.72798,0 32,-14.27202 32,-32 V 32 C 512,14.272018 497.72798,0 480,0 Z m 100.99219,48.755859 96.95312,68.755861 c 6.9699,-2.61139 15.49135,-4.26758 26.05469,-4.26758 12.79806,0 22.59385,2.4293 30.24219,6.0625 l 92.76562,-70.550781 9.98438,14.976563 -87.63282,66.824218 c 3.65397,4.1826 6.09175,8.64869 7.59375,12.6875 H 203.04687 c 1.64763,-4.42942 4.37718,-9.3844 8.66602,-13.90039 L 123.00781,63.732422 Z M 64.064453,161.24414 H 448.94727 c 4.47999,0 10.36317,2.60894 14.82617,7.08594 4.46299,4.47699 7.25256,10.41214 7.22656,15.86914 V 463.24414 H 41 v -279 c 0,-4.99999 2.777192,-11.04686 7.367187,-15.63086 4.590996,-4.58599 10.653271,-7.36914 15.697266,-7.36914 z"
     style="fill:#ffffff"
     id="path2" />
</svg>
