<?xml version="1.0" encoding="UTF-8" standalone="no"?>
<svg
   style="height: 512px; width: 512px;"
   viewBox="0 0 512 512"
   version="1.1"
   id="svg1"
   xmlns="http://www.w3.org/2000/svg"
   xmlns:svg="http://www.w3.org/2000/svg">
  <defs
     id="defs1" />
  <g
     class=""
     transform="matrix(1.2544402,0,0,1.2544402,-65.136691,-114.05986)"
     id="g1"
     style="fill:#ffffff">
    <path
       d="m 199,103 v 50 h -78 v 30 h 270 v -30 h -78 v -50 z m 18,18 h 78 v 32 h -78 z m -79.002,80 30.106,286 h 175.794 l 30.104,-286 z m 62.338,13.38 0.64,8.98 16,224 0.643,8.976 -17.956,1.283 -0.64,-8.98 -16,-224 -0.643,-8.976 z m 111.328,0 17.955,1.284 -0.643,8.977 -16,224 -0.64,8.98 -17.956,-1.284 0.643,-8.977 16,-224 0.64,-8.98 z M 247,215 h 18 v 242 h -18 z"
       fill="#ffffff"
       fill-opacity="1"
       id="path1"
       style="fill:#ffffff" />
  </g>
</svg>
